<svg id="Слой_4" data-name="Слой 4" xmlns="http://www.w3.org/2000/svg" xmlns:xlink="http://www.w3.org/1999/xlink" viewBox="0 0 806.73 624.31"><defs><style>.cls-1{fill:url(#Безымянный_градиент_38);}.cls-2{fill:url(#Безымянный_градиент_38-2);}</style><linearGradient id="Безымянный_градиент_38" x1="548.23" y1="16.41" x2="548.23" y2="16.34" gradientUnits="userSpaceOnUse"><stop offset="0" stop-color="#fc8b60"/><stop offset="1" stop-color="#fd2c96"/></linearGradient><linearGradient id="Безымянный_градиент_38-2" x1="417.63" y1="640.2" x2="417.63" y2="15.89" xlink:href="#Безымянный_градиент_38"/></defs><title>bg-top</title><path class="cls-1" d="M548.8,16.34l-.94.07h-.2Z" transform="translate(-14.27 -15.89)"/><path class="cls-2" d="M821,640.2V151.06c-.55-3.84-.91-7.5-1.07-10.95C779,81.78,689.68,21.76,582.24,16.31a324.21,324.21,0,0,0-33.44,0c.8.06,1.59.13,2.38.21-1.1-.06-2.21-.1-3.32-.14-145.7,10.24-252,91-331.46,188.16C74.15,350.79-28.79,544.3,32.18,640.2Z" transform="translate(-14.27 -15.89)"/></svg>